Coordinates
version=1
nRows=8
nColumns=36
inDegrees=yes

Units are S.I. units (second, meters, Newtons, ...)
If the header above contains a line with 'inDegrees', this indicates whether rotational values are in degrees (yes) or radians (no).

endheader
time	pelvis_tilt	pelvis_list	pelvis_rotation	pelvis_tx	pelvis_ty	pelvis_tz	hip_flexion_r	hip_adduction_r	hip_rotation_r	knee_angle_r	knee_angle_r_beta	ankle_angle_r	subtalar_angle_r	mtp_angle_r	hip_flexion_l	hip_adduction_l	hip_rotation_l	knee_angle_l	knee_angle_l_beta	ankle_angle_l	subtalar_angle_l	mtp_angle_l	lumbar_extension	lumbar_bending	lumbar_rotation	arm_flex_r	arm_add_r	arm_rot_r	elbow_flex_r	pro_sup_r	arm_flex_l	arm_add_l	arm_rot_l	elbow_flex_l	pro_sup_l
      0.00000000	      3.38838392	     -1.35225760	     -0.72257036	     -1.05268155	      1.30763026	     -0.08573896	     -2.72478024	      1.82166682	      4.22136805	      6.87273323	      0.11995182	      3.36043422	    -17.65351319	     -5.80186990	     -5.58978484	     -3.25863097	     -0.02204234	      3.56663734	      0.06224956	      7.67597318	    -11.13074911	     -5.80186990	    -12.72221796	      1.36537135	     -1.19264606	      3.25383075	     -6.85824823	      6.70478049	     27.80361346	     77.10289853	      4.64816067	     -8.85701142	     13.14642305	     23.27390214	     67.79974946
      0.00416670	      1.57602156	     -1.42921417	     -1.76508408	     -1.05026433	      1.30208492	     -0.08536172	      0.67560982	      2.16486476	      5.72578216	      9.85271435	      0.17196231	      6.45285672	    -16.86023872	     -6.85470728	     -3.56502498	     -2.94000844	     -1.44233730	      3.68810929	      0.06436965	      7.99057655	     -9.64997432	     -6.85470728	    -10.28095273	      1.68744408	     -0.66297225	      2.72384958	     -5.85671946	      0.68963275	     27.36139633	     81.03222073	      3.62076848	     -7.39824874	      3.73305178	     23.96300363	     74.03671691
      0.00833330	      0.47267900	     -0.91196435	     -2.69383924	     -1.05643250	      1.30065027	     -0.08831606	      2.69222677	      1.44411639	      5.32344436	     10.99125673	      0.19183362	      7.30442118	    -16.48762531	     -6.87290714	     -1.97237621	     -2.27715321	     -2.70388858	      4.21443523	      0.07355577	      8.02562283	     -9.41993363	     -6.87290714	     -9.20953755	      1.05388077	      0.06742179	      2.80436124	     -5.84786852	      0.26308442	     27.52147840	     80.73816500	      3.78758267	     -7.60991203	      3.44099634	     24.36503333	     73.88331370
      0.01250000	      0.12618264	     -0.59830744	     -3.10093556	     -1.05642706	      1.30321406	     -0.08808319	      3.32236792	      1.01757061	      5.47339260	     11.04134628	      0.19270785	      7.71782803	    -16.03000556	     -6.90623236	     -1.76406742	     -1.85315688	     -3.08812039	      3.95989996	      0.06911329	      8.04520941	     -9.30686859	     -6.90623236	     -8.74824091	      0.64912014	      0.25123026	      2.67988211	     -5.71879670	      0.25138159	     28.38400968	     79.94137646	      3.43392011	     -7.87198582	      3.43703761	     25.06033588	     73.31667985
      0.01666670	      0.86501074	     -0.61750656	     -3.53414850	     -1.05027915	      1.30084121	     -0.08271003	      2.25121197	      1.06020661	      5.54160369	     10.65067880	      0.18588941	      7.83389666	    -15.45365074	     -7.07631601	     -3.00660924	     -1.86051722	     -3.80609758	      3.46501856	      0.06047598	      8.00257024	     -8.98981437	     -7.07631601	     -9.54122024	      0.48198425	      1.16324907	      2.55951231	     -5.68674194	      0.61453721	     28.33433533	     77.28021725	      3.98005190	     -8.05960031	      5.91811843	     24.35619031	     72.13372675
      0.02083330	      1.05694060	     -0.55074985	     -3.85052938	     -1.05069476	      1.30418201	     -0.08272160	      1.98227833	      1.05215329	      5.66336496	     10.65008643	      0.18587907	      7.86337523	    -15.51395822	     -7.10595760	     -3.45897668	     -1.79575978	     -4.14300892	      3.33168235	      0.05814883	      8.12621924	     -8.96660550	     -7.10595760	     -9.64674626	      0.31234011	      1.65551026	      2.54658184	     -5.72934628	      0.99607543	     28.22218951	     76.56873327	      3.99044521	     -7.92816030	      6.06876864	     24.33901791	     71.56173136
      0.02500000	      1.24316169	     -0.49658256	     -3.97615365	     -1.05083815	      1.30426002	     -0.08245471	      1.71929193	      1.05034166	      5.78015397	     10.57814756	      0.18462350	      7.93782904	    -15.64321888	     -7.13669021	     -3.63456798	     -1.81066590	     -4.37962069	      3.58304905	      0.06253600	      8.40398155	     -8.91739796	     -7.13669021	     -9.77050455	      0.19387408	      1.90102953	      2.61294311	     -5.79746352	      1.66593292	     28.02009126	     75.85639837	      4.08299146	     -7.84358447	      6.43847734	     24.18964854	     71.00934635
      0.02916670	      1.17732723	     -0.46535522	     -4.08236937	     -1.05089861	      1.30363964	     -0.08246601	      1.73609768	      1.04999193	      5.89824261	     10.56300015	      0.18435913	      7.77188722	    -16.01265163	     -7.18454949	     -3.63725966	     -1.82303973	     -4.55686880	      3.61595617	      0.06311034	      8.55528544	     -8.74552532	     -7.18454949	     -9.48837424	      0.15597714	      1.87533133	      2.72025985	     -5.98838179	      3.38369458	     27.65033393	     75.63005421	      4.17325932	     -7.90941128	      7.88293536	     23.70781769	     70.87291049
